<svg width="1200" height="820" viewBox="0 0 1200 820" fill="none" xmlns="http://www.w3.org/2000/svg">
  <rect width="1200" height="820" rx="40" fill="#07111F"/>
  <circle cx="180" cy="110" r="220" fill="#1D4ED8" fill-opacity="0.35"/>
  <circle cx="1010" cy="130" r="240" fill="#06B6D4" fill-opacity="0.28"/>
  <circle cx="790" cy="700" r="220" fill="#A855F7" fill-opacity="0.16"/>
  <rect x="70" y="70" width="1060" height="680" rx="28" fill="url(#paint0_linear)"/>
  <rect x="100" y="100" width="360" height="150" rx="22" fill="#0F172A" fill-opacity="0.92"/>
  <text x="130" y="148" fill="#E2E8F0" font-family="Arial" font-size="24" font-weight="700">Omnicore Tech</text>
  <text x="130" y="188" fill="#7DD3FC" font-family="Arial" font-size="46" font-weight="700">Digital Growth</text>
  <text x="130" y="224" fill="#CBD5E1" font-family="Arial" font-size="20">ERP, POS, Websites, AI Automation</text>
  <rect x="100" y="290" width="430" height="310" rx="24" fill="#0B1323" fill-opacity="0.86" stroke="#1E293B"/>
  <rect x="130" y="330" width="88" height="200" rx="18" fill="#0EA5E9"/>
  <rect x="238" y="390" width="88" height="140" rx="18" fill="#22D3EE"/>
  <rect x="346" y="350" width="88" height="180" rx="18" fill="#38BDF8"/>
  <rect x="454" y="430" width="46" height="100" rx="16" fill="#7C3AED"/>
  <path d="M130 314C210 280 300 288 380 250C445 220 500 190 560 156" stroke="#7DD3FC" stroke-width="4" stroke-linecap="round"/>
  <rect x="560" y="140" width="500" height="250" rx="26" fill="#F8FAFC"/>
  <rect x="590" y="174" width="170" height="14" rx="7" fill="#CBD5E1"/>
  <rect x="590" y="205" width="248" height="14" rx="7" fill="#E2E8F0"/>
  <rect x="590" y="246" width="440" height="108" rx="18" fill="url(#paint1_linear)"/>
  <rect x="560" y="426" width="500" height="170" rx="26" fill="#0F172A" fill-opacity="0.92"/>
  <rect x="590" y="458" width="120" height="18" rx="9" fill="#7DD3FC"/>
  <rect x="590" y="498" width="440" height="18" rx="9" fill="#334155"/>
  <rect x="590" y="532" width="390" height="18" rx="9" fill="#1E293B"/>
  <rect x="590" y="566" width="320" height="18" rx="9" fill="#1E293B"/>
  <circle cx="1042" cy="140" r="52" fill="#E0F2FE"/>
  <path d="M1042 108L1051 132L1075 141L1051 150L1042 174L1033 150L1009 141L1033 132L1042 108Z" fill="#0284C7"/>
  <defs>
    <linearGradient id="paint0_linear" x1="116" y1="116" x2="1086" y2="710" gradientUnits="userSpaceOnUse">
      <stop stop-color="#111827"/>
      <stop offset="1" stop-color="#0F172A"/>
    </linearGradient>
    <linearGradient id="paint1_linear" x1="590" y1="246" x2="1030" y2="354" gradientUnits="userSpaceOnUse">
      <stop stop-color="#0EA5E9"/>
      <stop offset="1" stop-color="#22D3EE"/>
    </linearGradient>
  </defs>
</svg>
