<svg width="1200" height="840" viewBox="0 0 1200 840" fill="none" xmlns="http://www.w3.org/2000/svg">
  <rect width="1200" height="840" rx="40" fill="#ECFDF5"/>
  <rect x="88" y="88" width="1024" height="664" rx="32" fill="#0F172A"/>
  <rect x="132" y="132" width="936" height="576" rx="28" fill="#F8FAFC"/>
  <rect x="176" y="176" width="448" height="260" rx="26" fill="url(#a)"/>
  <rect x="216" y="220" width="188" height="18" rx="9" fill="white" fill-opacity="0.8"/>
  <rect x="216" y="258" width="140" height="18" rx="9" fill="white" fill-opacity="0.48"/>
  <rect x="664" y="176" width="360" height="260" rx="26" fill="#F1F5F9"/>
  <circle cx="844" cy="260" r="64" fill="#DCFCE7"/>
  <path d="M844 224L896 248L844 272L792 248L844 224Z" fill="#059669"/>
  <path d="M812 284C832 300 856 300 876 284V320C856 336 832 336 812 320V284Z" fill="#10B981"/>
  <rect x="176" y="470" width="848" height="190" rx="26" fill="#0F172A"/>
  <rect x="220" y="514" width="260" height="20" rx="10" fill="#A7F3D0"/>
  <rect x="220" y="558" width="420" height="18" rx="9" fill="#334155"/>
  <rect x="220" y="594" width="350" height="18" rx="9" fill="#334155"/>
  <rect x="782" y="514" width="180" height="90" rx="20" fill="#10B981"/>
  <defs>
    <linearGradient id="a" x1="176" y1="176" x2="624" y2="436" gradientUnits="userSpaceOnUse">
      <stop stop-color="#10B981"/>
      <stop offset="1" stop-color="#22D3EE"/>
    </linearGradient>
  </defs>
</svg>
