<svg width="1200" height="840" viewBox="0 0 1200 840" fill="none" xmlns="http://www.w3.org/2000/svg">
  <rect width="1200" height="840" rx="40" fill="#09111E"/>
  <circle cx="980" cy="110" r="220" fill="#38BDF8" fill-opacity="0.25"/>
  <rect x="84" y="84" width="1032" height="672" rx="30" fill="#F8FAFC"/>
  <rect x="132" y="128" width="300" height="520" rx="30" fill="#0F172A"/>
  <rect x="174" y="180" width="216" height="44" rx="16" fill="#1E293B"/>
  <rect x="174" y="250" width="216" height="90" rx="20" fill="#0EA5E9"/>
  <rect x="174" y="366" width="96" height="96" rx="22" fill="#E2E8F0"/>
  <rect x="294" y="366" width="96" height="96" rx="22" fill="#E2E8F0"/>
  <rect x="174" y="486" width="96" height="96" rx="22" fill="#E2E8F0"/>
  <rect x="294" y="486" width="96" height="96" rx="22" fill="#E2E8F0"/>
  <rect x="476" y="150" width="580" height="170" rx="28" fill="url(#a)"/>
  <rect x="514" y="194" width="130" height="18" rx="9" fill="white" fill-opacity="0.78"/>
  <rect x="514" y="230" width="200" height="18" rx="9" fill="white" fill-opacity="0.45"/>
  <rect x="476" y="358" width="580" height="250" rx="28" fill="#F1F5F9"/>
  <path d="M528 540C600 480 662 420 742 438C802 452 846 510 904 522C955 532 988 508 1010 476" stroke="#0EA5E9" stroke-width="8" stroke-linecap="round"/>
  <circle cx="528" cy="540" r="12" fill="#0EA5E9"/>
  <circle cx="742" cy="438" r="12" fill="#0EA5E9"/>
  <circle cx="904" cy="522" r="12" fill="#0EA5E9"/>
  <defs>
    <linearGradient id="a" x1="476" y1="150" x2="1056" y2="320" gradientUnits="userSpaceOnUse">
      <stop stop-color="#0EA5E9"/>
      <stop offset="1" stop-color="#22D3EE"/>
    </linearGradient>
  </defs>
</svg>
