<svg width="1200" height="840" viewBox="0 0 1200 840" fill="none" xmlns="http://www.w3.org/2000/svg">
  <rect width="1200" height="840" rx="40" fill="#FFF7ED"/>
  <circle cx="1000" cy="120" r="190" fill="#FB7185" fill-opacity="0.18"/>
  <rect x="92" y="92" width="1016" height="656" rx="32" fill="#0F172A"/>
  <rect x="132" y="132" width="936" height="576" rx="28" fill="#F8FAFC"/>
  <rect x="164" y="164" width="872" height="54" rx="18" fill="#111827"/>
  <circle cx="208" cy="191" r="8" fill="#FB7185"/>
  <circle cx="236" cy="191" r="8" fill="#F59E0B"/>
  <circle cx="264" cy="191" r="8" fill="#22C55E"/>
  <rect x="164" y="252" width="390" height="412" rx="26" fill="url(#a)"/>
  <rect x="590" y="252" width="446" height="126" rx="24" fill="#F1F5F9"/>
  <rect x="590" y="404" width="212" height="260" rx="24" fill="#F1F5F9"/>
  <rect x="824" y="404" width="212" height="260" rx="24" fill="#F1F5F9"/>
  <rect x="210" y="318" width="200" height="20" rx="10" fill="white" fill-opacity="0.8"/>
  <rect x="210" y="358" width="130" height="18" rx="9" fill="white" fill-opacity="0.46"/>
  <rect x="210" y="520" width="132" height="44" rx="22" fill="#0F172A"/>
  <defs>
    <linearGradient id="a" x1="164" y1="252" x2="554" y2="664" gradientUnits="userSpaceOnUse">
      <stop stop-color="#FB7185"/>
      <stop offset="1" stop-color="#F59E0B"/>
    </linearGradient>
  </defs>
</svg>
