<svg width="1200" height="840" viewBox="0 0 1200 840" fill="none" xmlns="http://www.w3.org/2000/svg">
  <rect width="1200" height="840" rx="40" fill="#F0FDFA"/>
  <rect x="86" y="86" width="1028" height="668" rx="32" fill="#020617"/>
  <circle cx="950" cy="150" r="180" fill="#22D3EE" fill-opacity="0.22"/>
  <circle cx="840" cy="614" r="160" fill="#A855F7" fill-opacity="0.15"/>
  <rect x="132" y="132" width="936" height="576" rx="28" fill="#0F172A"/>
  <circle cx="786" cy="418" r="132" stroke="#22D3EE" stroke-width="2" stroke-opacity="0.4"/>
  <circle cx="786" cy="418" r="82" stroke="#A855F7" stroke-width="2" stroke-opacity="0.45"/>
  <circle cx="786" cy="418" r="22" fill="url(#a)"/>
  <circle cx="786" cy="286" r="14" fill="#22D3EE"/>
  <circle cx="903" cy="456" r="14" fill="#A855F7"/>
  <circle cx="690" cy="486" r="14" fill="#38BDF8"/>
  <rect x="174" y="180" width="360" height="196" rx="24" fill="#F8FAFC"/>
  <rect x="208" y="218" width="100" height="18" rx="9" fill="#CBD5E1"/>
  <rect x="208" y="256" width="196" height="18" rx="9" fill="#E2E8F0"/>
  <rect x="208" y="304" width="278" height="42" rx="21" fill="#0F172A"/>
  <rect x="174" y="412" width="360" height="196" rx="24" fill="#F8FAFC"/>
  <rect x="208" y="452" width="140" height="18" rx="9" fill="#CBD5E1"/>
  <rect x="208" y="490" width="250" height="18" rx="9" fill="#E2E8F0"/>
  <rect x="208" y="528" width="212" height="18" rx="9" fill="#E2E8F0"/>
  <defs>
    <linearGradient id="a" x1="764" y1="396" x2="808" y2="440" gradientUnits="userSpaceOnUse">
      <stop stop-color="#22D3EE"/>
      <stop offset="1" stop-color="#A855F7"/>
    </linearGradient>
  </defs>
</svg>
