<svg width="1200" height="840" viewBox="0 0 1200 840" fill="none" xmlns="http://www.w3.org/2000/svg">
  <rect width="1200" height="840" rx="40" fill="#EEF2FF"/>
  <circle cx="160" cy="120" r="190" fill="#6366F1" fill-opacity="0.2"/>
  <rect x="90" y="90" width="1020" height="660" rx="32" fill="#0F172A"/>
  <rect x="128" y="134" width="220" height="572" rx="24" fill="#111827"/>
  <rect x="164" y="186" width="148" height="16" rx="8" fill="#94A3B8"/>
  <rect x="164" y="236" width="148" height="52" rx="16" fill="#4F46E5"/>
  <rect x="164" y="314" width="148" height="52" rx="16" fill="#1E293B"/>
  <rect x="164" y="392" width="148" height="52" rx="16" fill="#1E293B"/>
  <rect x="388" y="134" width="684" height="186" rx="24" fill="#F8FAFC"/>
  <rect x="430" y="180" width="210" height="18" rx="9" fill="#CBD5E1"/>
  <rect x="430" y="220" width="320" height="18" rx="9" fill="#E2E8F0"/>
  <rect x="430" y="256" width="160" height="26" rx="13" fill="#C7D2FE"/>
  <rect x="388" y="354" width="328" height="352" rx="24" fill="#F8FAFC"/>
  <rect x="752" y="354" width="320" height="352" rx="24" fill="url(#a)"/>
  <rect x="430" y="404" width="244" height="30" rx="15" fill="#E2E8F0"/>
  <rect x="430" y="456" width="210" height="24" rx="12" fill="#CBD5E1"/>
  <rect x="430" y="504" width="180" height="24" rx="12" fill="#CBD5E1"/>
  <rect x="430" y="552" width="224" height="24" rx="12" fill="#CBD5E1"/>
  <circle cx="912" cy="506" r="90" fill="white" fill-opacity="0.28"/>
  <path d="M912 438V506L962 536" stroke="white" stroke-width="16" stroke-linecap="round"/>
  <defs>
    <linearGradient id="a" x1="752" y1="354" x2="1072" y2="706" gradientUnits="userSpaceOnUse">
      <stop stop-color="#4F46E5"/>
      <stop offset="1" stop-color="#06B6D4"/>
    </linearGradient>
  </defs>
</svg>
